<svg xmlns="http://www.w3.org/2000/svg" viewBox="0 0 20 20"><rect width="20" height="20" rx="4.5" fill="#10847E"/><g transform="translate(4.68 4.4) scale(0.56)" fill="#fff"><path d="M10.0053 10.2162C9.51276 9.74317 8.80045 9.75058 8.31535 10.2088C7.30764 11.1549 6.32266 12.1232 5.33741 13.0844C5.04968 13.3696 4.93581 13.7302 5.0267 14.1278C5.23146 15.1115 6.40589 15.4721 7.17131 14.7813C7.78508 14.218 8.36846 13.64 8.9595 13.0545C9.14154 12.8743 9.25516 12.8365 9.45966 13.0394C10.3614 13.9402 11.2859 14.8263 12.218 15.6972C12.4225 15.8925 12.3998 16.0052 12.1953 16.1854C11.5966 16.7484 10.9979 17.3264 10.4069 17.9048C10.0206 18.2876 9.94475 18.7606 10.1493 19.2488C10.3538 19.7443 10.7704 19.9771 11.2027 19.9996C11.6421 20.007 11.9451 19.9094 12.1726 19.6766C13.1726 18.7231 14.1729 17.777 15.1505 16.801C15.6203 16.328 15.6203 15.6448 15.1429 15.1792C13.4379 13.505 11.7329 11.8605 10.0053 10.2162Z"/><path d="M18.5827 11.7247C18.257 11.4096 17.9386 11.0715 17.5901 10.7712C17.3552 10.5685 17.3021 10.4259 17.5069 10.1331C18.2266 9.08934 18.56 7.90303 18.5751 6.63417C18.5751 6.09366 18.4995 5.56797 18.3856 5.04994C17.105 0.117107 10.8233 -1.67745 7.04194 1.82144C5.87491 2.90246 4.74593 4.02131 3.60189 5.12508C2.53342 6.16112 1.45754 7.18976 0.396465 8.2258C0.0252464 8.5864 -0.0960272 9.02188 0.0783531 9.51715C0.252469 10.0127 0.63135 10.268 1.14683 10.3357C1.59388 10.3881 1.96509 10.2005 2.27581 9.88542C4.37471 7.85805 6.48128 5.83094 8.57278 3.80357C9.62594 2.77494 10.8688 2.36195 12.3312 2.51222C14.5892 2.75986 16.3018 4.91475 15.9911 7.11462C15.8471 8.09828 15.423 8.91684 14.703 9.60736C14.1648 10.1331 14.1043 10.8312 14.5892 11.3268C15.3242 12.0927 16.0973 12.8359 16.8854 13.5491C17.3853 14 18.1735 13.9322 18.6358 13.4515C19.1056 12.9486 19.0903 12.2427 18.5827 11.7247Z"/></g></svg>